<svg id="Layer_1" data-name="Layer 1" xmlns="http://www.w3.org/2000/svg" viewBox="0 0 20 19.98"><defs><style>.cls-1{fill:#f44336;}.cls-2{fill:#fff;}</style></defs><title>icon</title><path class="cls-1" d="M19.31.74V19.29H5.84V.74H19.31M20,0H5.16V20H20V0Z" transform="translate(0 -0.02)"/><path class="cls-2" d="M3.72,15.32a3,3,0,0,0,.17,1.17.9.9,0,0,0,.6.5,5.36,5.36,0,0,0,1.4.17v.43q-1.11-.06-3.15-.06c-1.23,0-2.14,0-2.74.06v-.43A3.4,3.4,0,0,0,1.12,17a.75.75,0,0,0,.48-.5,3.6,3.6,0,0,0,.14-1.17V4.7A3.69,3.69,0,0,0,1.6,3.53.77.77,0,0,0,1.12,3,3.69,3.69,0,0,0,0,2.86V2.43c.59,0,1.46.07,2.61.07l1.85,0c.67,0,1.13,0,1.38,0A6.91,6.91,0,0,1,8.69,3a3.87,3.87,0,0,1,1.74,1.48A4.25,4.25,0,0,1,11,6.68a5.17,5.17,0,0,1-.53,2.26,4.16,4.16,0,0,1-1.78,1.8,6.68,6.68,0,0,1-3.33.73H3.72Zm4.34-5.4a5,5,0,0,0,.8-3,6.12,6.12,0,0,0-.35-2.27A2.58,2.58,0,0,0,7.37,3.31a4.06,4.06,0,0,0-2.06-.45,2.52,2.52,0,0,0-1,.15.83.83,0,0,0-.46.54A3.73,3.73,0,0,0,3.72,4.7V11H5.16A3.36,3.36,0,0,0,8.06,9.92Z" transform="translate(0 -0.02)"/></svg>